<svg width="1280" height="640" viewBox="0 0 1280 640" xmlns="http://www.w3.org/2000/svg">
    <defs>
        <!-- Background gradient -->
        <linearGradient id="bg" x1="0" y1="0" x2="1" y2="1">
            <stop offset="0" stop-color="#07090F"/>
            <stop offset="0.55" stop-color="#0C0C0C"/>
            <stop offset="1" stop-color="#0A0F1A"/>
        </linearGradient>

        <!-- Subtle grid -->
        <pattern id="grid" width="40" height="40" patternUnits="userSpaceOnUse">
            <path d="M40 0H0V40" fill="none" stroke="#FFFFFF10" stroke-width="1"/>
        </pattern>

        <!-- STRONGER, PNG-FRIENDLY GLOW -->
        <radialGradient id="glow" cx="50%" cy="50%" r="50%">
            <stop offset="0" stop-color="#7C3AED" stop-opacity="0.55"/>
            <stop offset="0.45" stop-color="#3B82F6" stop-opacity="0.30"/>
            <stop offset="1" stop-color="#000000" stop-opacity="0"/>
        </radialGradient>
    </defs>

    <!-- Background -->
    <rect width="1280" height="640" fill="url(#bg)"/>
    <rect width="1280" height="640" fill="url(#grid)" opacity="0.35"/>

    <!-- LEFT: Brand & message -->
    <g font-family="Inter, SF Pro Display, -apple-system, BlinkMacSystemFont, Segoe UI, Arial, sans-serif">
        <text x="70" y="255" font-size="120" font-weight="900" fill="#FFFFFF" letter-spacing="4">
            ASKIMO
        </text>

        <text x="74" y="315" font-size="40" font-weight="700" fill="#D8D8D8">
            Desktop + CLI AI hub
        </text>

        <text x="74" y="365" font-size="34" font-weight="600" fill="#BEBEBE">
            Built-in Knowledge Base • Multi-Provider
        </text>
    </g>

    <!-- RIGHT: IMPRESSIVE HUB (STACKED GLOW) -->

    <!-- Glow stack (this is the key improvement) -->
    <circle cx="980" cy="340" r="270" fill="url(#glow)" opacity="0.90"/>
    <circle cx="980" cy="340" r="235" fill="url(#glow)" opacity="0.95"/>
    <circle cx="980" cy="340" r="205" fill="url(#glow)" opacity="0.85"/>

    <!-- Segmented integration ring -->
    <circle
            cx="980"
            cy="340"
            r="220"
            fill="none"
            stroke="#FFFFFF22"
            stroke-width="3"
            stroke-dasharray="18 10"
    />

    <!-- Primary authority ring -->
    <circle
            cx="980"
            cy="340"
            r="195"
            fill="none"
            stroke="#FFFFFF66"
            stroke-width="3"
    />

    <!-- Inner energy ring -->
    <circle
            cx="980"
            cy="340"
            r="165"
            fill="none"
            stroke="#8B9CFF88"
            stroke-width="2"
    />

    <!-- Dark core -->
    <circle cx="980" cy="340" r="140" fill="#0B1220"/>

    <!-- Provider pills (CRISP) -->
    <g font-family="Inter, SF Pro Display, Arial"
       font-size="18"
       font-weight="750"
       text-anchor="middle"
       dominant-baseline="middle">

        <!-- Highlighted -->
        <g>
            <rect x="915" y="95" width="130" height="38" rx="19"
                  fill="#1A1F3A" stroke="#8B9CFF" stroke-width="2.5"/>
            <text x="980" y="114" fill="#FFFFFF">OpenAI</text>
        </g>

        <g>
            <rect x="1115" y="155" width="150" height="38" rx="19"
                  fill="#1A1F3A" stroke="#8B9CFF" stroke-width="2.5"/>
            <text x="1190" y="174" fill="#FFFFFF">Anthropic</text>
        </g>

        <g>
            <rect x="1140" y="310" width="120" height="38" rx="19"
                  fill="#1A1F3A" stroke="#8B9CFF" stroke-width="2.5"/>
            <text x="1200" y="329" fill="#FFFFFF">Gemini</text>
        </g>

        <!-- Secondary -->
        <g>
            <rect x="1090" y="470" width="170" height="38" rx="19"
                  fill="#0B1220" stroke="#FFFFFF44" stroke-width="2"/>
            <text x="1175" y="489" fill="#E0E0E0">LM Studio</text>
        </g>

        <g>
            <rect x="915" y="540" width="130" height="38" rx="19"
                  fill="#0B1220" stroke="#FFFFFF44" stroke-width="2"/>
            <text x="980" y="559" fill="#E0E0E0">Ollama</text>
        </g>

        <g>
            <rect x="720" y="470" width="165" height="38" rx="19"
                  fill="#0B1220" stroke="#FFFFFF44" stroke-width="2"/>
            <text x="802.5" y="489" fill="#E0E0E0">Docker AI</text>
        </g>

        <g>
            <rect x="705" y="310" width="140" height="38" rx="19"
                  fill="#0B1220" stroke="#FFFFFF44" stroke-width="2"/>
            <text x="775" y="329" fill="#E0E0E0">LocalAI</text>
        </g>

        <g>
            <rect x="760" y="155" width="90" height="38" rx="19"
                  fill="#0B1220" stroke="#FFFFFF44" stroke-width="2"/>
            <text x="805" y="174" fill="#E0E0E0">X</text>
        </g>
    </g>

    <!-- Askimo logo (PERFECTLY CENTERED) -->
    <!-- translate(980 − 0.22×512, 340 − 0.22×512) -->
    <g transform="translate(867.36 227.36) scale(0.22)"
       fill="none"
       stroke="#FFFFFF"
       stroke-width="40"
       stroke-linecap="round"
       stroke-linejoin="round">
        <polygon points="121,291 507,64 890,282 903,731 515,963 116,719" />
        <path d="M254 395 L344 507" />
        <path d="M257 620 L341 520" />
        <path d="M361 560 L456 560" />
        <circle cx="665" cy="509" r="79" />
        <circle cx="529" cy="397" r="39" />
        <path d="M665 509 L529 397" />
        <circle cx="797" cy="625" r="39" />
        <path d="M665 509 L797 625" />
        <circle cx="667" cy="307" r="37" />
        <path d="M665 509 L667 307" />
        <circle cx="529" cy="625" r="35" />
        <path d="M665 509 L529 625" />
        <circle cx="671" cy="715" r="35" />
        <path d="M665 509 L671 715" />
        <circle cx="805" cy="409" r="34" />
        <path d="M665 509 L805 409" />
    </g>

</svg>
